<!DOCTYPE svg PUBLIC "-//W3C//DTD SVG 20010904//EN" "http://www.w3.org/TR/2001/REC-SVG-20010904/DTD/svg10.dtd">
<svg version="1.0" xmlns="http://www.w3.org/2000/svg" width="679px" height="561px" viewBox="0 0 6790 5610" preserveAspectRatio="xMidYMid meet">
<g id="layer101" fill="#000000" stroke="none">
 <path d="M0 2805 l0 -2805 3395 0 3395 0 0 2805 0 2805 -3395 0 -3395 0 0 -2805z"/>
 </g>
<g id="layer102" fill="#e0e1e1" stroke="none">
 <path d="M0 2800 l0 -2800 3390 0 3390 0 0 2800 0 2800 -3390 0 -3390 0 0 -2800z m3737 1288 c44 -46 92 -102 107 -125 14 -24 31 -43 37 -43 6 0 42 20 80 45 100 65 136 81 229 105 129 33 254 15 391 -56 57 -29 157 -114 217 -183 32 -37 77 -84 100 -105 48 -44 156 -91 256 -112 38 -8 87 -23 110 -33 55 -24 136 -105 136 -137 0 -26 4 -24 -116 -48 -99 -20 -214 -80 -214 -112 0 -18 75 -19 131 -2 35 10 42 9 62 -9 12 -11 30 -23 40 -26 24 -9 22 -17 -14 -67 -39 -54 -135 -145 -219 -207 -36 -27 -66 -55 -68 -64 -1 -8 18 -35 43 -60 71 -68 79 -89 61 -152 -16 -56 -88 -179 -136 -234 -35 -40 -36 -42 -10 -119 61 -184 74 -439 39 -742 -20 -175 -26 -345 -18 -513 5 -110 -4 -124 -77 -116 -57 6 -173 62 -233 113 -48 42 -133 170 -216 329 -70 132 -121 213 -175 275 -29 33 -31 34 -63 21 -17 -7 -59 -23 -92 -35 -33 -13 -71 -28 -84 -35 -40 -22 -280 -87 -384 -105 -122 -21 -385 -29 -497 -15 -47 6 -114 14 -150 18 -36 5 -75 13 -85 19 -11 6 -56 18 -100 27 -44 10 -118 33 -165 52 -47 19 -95 39 -108 44 -46 18 -71 10 -116 -36 -43 -46 -122 -171 -212 -340 -118 -222 -233 -357 -355 -420 -56 -29 -172 -60 -194 -51 -17 6 -15 69 6 231 8 58 7 176 -2 424 -12 313 -11 358 4 497 17 152 47 271 102 412 14 34 25 66 25 71 0 5 -27 43 -59 85 -68 88 -97 143 -107 203 -7 48 4 58 77 69 60 9 94 31 78 50 -6 8 -17 14 -23 14 -7 0 -57 30 -111 66 -100 65 -295 246 -295 272 0 7 11 23 25 36 24 23 30 23 135 18 70 -3 110 -1 110 5 0 10 -82 64 -149 98 -48 24 -86 35 -159 45 -34 4 -69 14 -77 20 -24 20 6 62 82 113 58 38 88 50 203 77 74 18 158 44 185 58 31 15 100 73 180 151 151 147 200 183 310 228 73 30 90 33 185 33 147 0 266 -39 411 -136 90 -60 103 -57 163 39 25 41 66 93 91 116 l45 41 273 0 273 0 81 -82z"/>
 <path d="M2399 3246 c-79 -28 -137 -70 -251 -183 -62 -61 -88 -94 -88 -111 0 -40 79 -159 146 -221 198 -181 463 -200 622 -44 35 35 54 62 62 94 7 24 23 70 36 102 37 88 48 155 29 184 -25 38 -173 127 -268 161 -73 26 -102 32 -170 32 -45 -1 -98 -7 -118 -14z"/>
 <path d="M4140 3253 c-94 -16 -331 -148 -345 -192 -10 -34 4 -100 36 -164 16 -32 29 -73 29 -92 0 -48 53 -112 130 -157 132 -77 268 -76 425 4 83 43 188 162 229 259 15 36 15 37 -27 91 -101 130 -225 227 -317 247 -45 10 -113 12 -160 4z"/>
 </g>
<g id="layer103" fill="#e3e1e0" stroke="none">
 <path d="M0 2800 l0 -2800 3390 0 3390 0 0 2800 0 2800 -3390 0 -3390 0 0 -2800z m3737 1288 c44 -46 92 -102 107 -125 14 -24 31 -43 37 -43 9 0 154 88 189 115 8 7 42 18 75 25 33 7 71 17 85 23 39 16 157 8 208 -14 25 -11 57 -21 71 -22 31 -4 74 -28 145 -82 83 -64 136 -111 136 -122 0 -15 141 -152 164 -159 12 -3 44 -17 73 -30 28 -13 84 -31 124 -39 82 -17 148 -44 168 -68 7 -10 20 -17 27 -17 8 0 19 -11 24 -24 5 -13 14 -27 19 -31 6 -3 11 -17 11 -30 0 -27 4 -25 -116 -49 -99 -20 -214 -80 -214 -112 0 -10 13 -14 49 -14 28 0 52 4 55 8 9 16 74 12 87 -4 7 -9 23 -20 36 -25 30 -11 29 -18 -9 -69 -18 -23 -39 -53 -46 -66 -7 -13 -18 -24 -25 -24 -6 0 -27 -15 -47 -34 -19 -19 -64 -56 -100 -83 -36 -27 -66 -55 -68 -64 -1 -8 18 -35 43 -60 71 -68 79 -89 61 -152 -16 -56 -88 -179 -136 -234 -35 -40 -36 -43 -11 -114 32 -95 62 -300 63 -432 0 -67 -10 -207 -22 -312 -21 -186 -27 -342 -19 -516 5 -121 -13 -136 -129 -107 -49 12 -171 88 -208 129 -42 47 -122 176 -189 304 -70 132 -121 213 -175 275 -29 33 -31 34 -63 21 -17 -7 -59 -23 -92 -35 -33 -13 -71 -28 -84 -35 -40 -22 -280 -87 -384 -105 -125 -21 -386 -29 -502 -14 -49 6 -111 12 -136 13 -25 1 -61 9 -80 18 -19 8 -76 24 -127 36 -51 12 -123 35 -159 51 -36 17 -76 30 -89 30 -12 0 -26 5 -29 10 -15 24 -56 9 -99 -35 -44 -46 -145 -207 -188 -300 -25 -53 -34 -68 -107 -180 -99 -152 -174 -230 -272 -280 -56 -29 -172 -60 -194 -51 -17 6 -17 11 7 236 8 79 8 164 -1 340 -26 495 -3 717 104 988 14 34 25 66 25 71 0 5 -27 43 -59 85 -68 88 -97 143 -107 203 -7 48 4 58 77 69 50 7 95 32 83 44 -11 11 -87 54 -141 81 -24 11 -43 24 -43 30 0 5 -12 15 -27 22 -16 7 -72 58 -126 114 -109 111 -113 124 -55 162 23 14 37 17 49 10 25 -13 179 -12 179 2 0 5 -20 19 -45 30 -25 11 -45 24 -45 28 0 4 -19 16 -42 26 -24 10 -58 24 -77 33 -19 8 -63 18 -98 22 -35 5 -70 13 -77 19 -26 22 -3 58 68 107 61 41 88 52 215 84 80 20 166 47 191 60 25 13 104 80 175 150 148 144 209 188 315 229 64 25 91 30 185 32 72 2 118 -2 133 -10 12 -7 31 -9 42 -6 10 3 21 1 25 -4 3 -6 53 -33 110 -61 57 -28 107 -55 110 -60 10 -17 68 -40 86 -35 10 3 38 39 63 79 25 40 66 92 91 115 l45 41 273 0 273 0 81 -82z"/>
 <path d="M2399 3246 c-79 -28 -137 -70 -251 -183 -62 -61 -88 -94 -88 -111 0 -69 151 -248 252 -299 127 -64 138 -67 248 -67 92 0 112 3 161 26 78 36 154 112 169 169 7 24 23 70 36 102 37 88 48 155 29 184 -25 38 -173 127 -268 161 -73 26 -102 32 -170 32 -45 -1 -98 -7 -118 -14z"/>
 <path d="M4140 3254 c-80 -16 -251 -102 -288 -145 -9 -10 -22 -19 -29 -19 -43 0 -39 -100 8 -193 16 -32 29 -73 29 -92 0 -48 53 -112 130 -157 132 -77 268 -76 425 4 83 43 188 162 229 259 l15 37 -43 55 c-78 100 -210 217 -247 217 -5 0 -21 7 -34 16 -24 16 -147 27 -195 18z"/>
 </g>
<g id="layer104" fill="#ffffff" stroke="none">
 <path d="M0 2800 l0 -2800 3390 0 3390 0 0 2800 0 2800 -3390 0 -3390 0 0 -2800z m3700 1325 c24 -25 50 -45 57 -45 7 0 13 -6 13 -14 0 -7 7 -19 15 -26 8 -6 30 -36 50 -66 39 -59 52 -64 80 -34 10 11 23 20 29 20 6 0 42 20 79 45 38 25 75 45 82 45 8 0 17 5 20 10 4 6 12 10 18 9 7 -1 25 3 40 9 16 7 33 10 38 6 5 -3 14 -2 20 2 18 11 157 8 171 -3 20 -15 70 -33 103 -36 37 -5 84 -28 109 -56 11 -12 25 -21 33 -21 7 0 16 -7 19 -15 4 -8 10 -15 14 -15 10 0 110 -96 110 -105 0 -18 133 -134 180 -156 69 -33 190 -71 224 -71 15 0 29 -4 32 -9 3 -5 13 -9 23 -9 9 0 30 -13 46 -30 16 -16 35 -30 42 -30 7 0 18 -11 23 -24 5 -13 14 -27 19 -31 15 -9 14 -52 -1 -62 -7 -4 -24 -9 -38 -10 -105 -8 -157 -24 -213 -67 -19 -15 -39 -26 -45 -26 -15 0 -15 -13 0 -28 14 -14 74 -16 82 -4 9 16 74 12 87 -4 7 -9 23 -20 36 -25 33 -12 29 -42 -10 -81 -19 -18 -37 -41 -40 -51 -4 -9 -17 -21 -30 -26 -13 -5 -40 -28 -59 -50 -19 -23 -38 -41 -41 -41 -3 0 -18 -11 -33 -25 -15 -14 -33 -25 -40 -25 -8 0 -14 -7 -14 -15 0 -8 -7 -15 -15 -15 -28 0 -15 -25 38 -75 77 -74 85 -93 57 -149 -12 -26 -20 -52 -17 -59 3 -8 -4 -19 -14 -25 -10 -7 -19 -17 -19 -23 0 -5 -11 -26 -25 -46 -13 -20 -21 -41 -18 -46 3 -6 2 -7 -4 -4 -11 7 -42 -25 -62 -64 -9 -19 -10 -31 -2 -45 13 -24 41 -138 47 -188 2 -22 7 -49 11 -60 9 -28 11 -47 13 -217 1 -80 0 -159 -3 -175 -4 -16 -9 -63 -13 -104 -3 -41 -7 -86 -9 -100 -18 -151 -21 -243 -13 -451 3 -98 -6 -119 -54 -119 -47 0 -120 22 -158 47 -19 12 -39 23 -45 23 -19 1 -133 125 -160 175 -15 28 -38 64 -51 82 -13 17 -24 38 -24 45 0 8 -5 19 -11 25 -11 11 -27 40 -88 158 -22 45 -62 105 -87 135 -49 57 -78 66 -114 35 -8 -7 -34 -16 -57 -20 -24 -4 -59 -18 -78 -31 -20 -13 -44 -24 -55 -24 -10 0 -22 -5 -25 -11 -4 -6 -13 -8 -20 -5 -7 2 -17 0 -22 -5 -5 -5 -27 -12 -48 -14 -21 -3 -62 -12 -89 -21 -76 -24 -110 -29 -241 -40 -49 -4 -96 -11 -102 -16 -7 -6 -21 -7 -30 -3 -30 12 -107 14 -120 4 -6 -6 -20 -8 -30 -5 -24 7 -196 29 -254 31 -25 1 -61 10 -80 19 -20 9 -52 17 -73 18 -20 1 -39 5 -42 9 -2 5 -11 6 -18 3 -8 -3 -17 -1 -20 5 -4 5 -27 13 -51 17 -25 3 -48 10 -51 15 -3 5 -13 9 -23 9 -10 0 -30 9 -44 20 -14 11 -37 20 -50 20 -14 0 -29 5 -32 10 -14 23 -56 9 -95 -31 -40 -41 -48 -54 -90 -136 -12 -22 -30 -49 -41 -59 -10 -9 -19 -24 -20 -33 0 -9 -11 -34 -24 -56 -13 -22 -31 -56 -41 -75 -10 -19 -35 -58 -56 -87 -21 -28 -47 -70 -59 -93 -12 -23 -28 -44 -35 -47 -7 -3 -16 -15 -20 -26 -7 -25 -53 -77 -68 -77 -5 0 -30 -17 -55 -38 -31 -26 -71 -46 -121 -61 -41 -13 -88 -27 -104 -32 -41 -13 -60 6 -47 47 23 69 30 345 17 619 -5 83 -7 209 -6 280 2 133 3 149 15 245 15 130 22 163 40 205 19 44 44 133 39 138 -3 2 7 26 21 52 24 46 26 85 4 85 -5 0 -13 8 -16 18 -4 9 -23 38 -44 64 -47 60 -98 165 -96 198 2 22 10 27 77 45 83 22 106 33 93 46 -10 10 -86 53 -140 80 -24 11 -43 24 -43 30 0 5 -12 15 -27 22 -16 7 -72 58 -126 114 -108 111 -112 121 -57 162 21 15 35 19 48 13 22 -11 138 -16 152 -7 14 9 -16 45 -37 45 -7 0 -16 6 -19 14 -3 7 -24 21 -47 31 -23 10 -56 24 -74 32 -28 12 -87 22 -156 27 -51 3 -40 65 19 102 24 15 44 32 44 36 0 13 59 33 200 68 74 18 158 44 185 58 30 15 100 73 175 146 157 151 196 186 208 186 5 0 25 11 45 24 20 14 62 31 94 39 66 17 262 25 283 12 8 -5 32 -10 53 -11 24 -1 46 -10 58 -23 11 -12 28 -21 38 -21 24 0 81 -29 81 -41 0 -5 8 -9 17 -9 9 0 29 -11 44 -26 17 -16 41 -26 68 -29 40 -4 43 -2 56 28 24 54 68 112 118 156 l48 41 273 0 272 0 44 -45z"/>
 <path d="M2405 3244 c-15 -8 -33 -14 -40 -14 -7 0 -25 -10 -41 -22 -15 -13 -41 -30 -56 -38 -15 -8 -68 -55 -118 -104 -103 -103 -107 -115 -57 -190 17 -27 37 -58 43 -68 19 -32 87 -98 101 -98 8 0 16 -7 19 -15 8 -21 159 -94 209 -102 46 -7 157 -7 196 0 47 9 117 45 128 66 6 11 23 26 38 33 31 15 62 62 66 104 4 32 13 61 28 84 16 26 30 63 33 89 2 14 7 37 10 51 8 27 -24 80 -47 80 -7 1 -41 23 -77 50 -36 27 -78 52 -95 56 -16 3 -50 15 -75 27 -57 27 -221 34 -265 11z"/>
 <path d="M4115 3242 c-101 -29 -131 -43 -190 -87 -33 -25 -75 -52 -92 -60 -26 -13 -33 -22 -35 -48 -2 -49 2 -81 13 -91 5 -6 9 -18 9 -28 0 -10 11 -35 24 -56 16 -25 22 -47 19 -68 -9 -63 127 -182 227 -200 75 -13 184 -9 219 9 19 9 42 17 51 17 10 0 29 9 43 20 14 11 30 20 37 20 14 0 140 119 140 132 0 6 14 29 31 53 43 59 42 100 -1 156 -37 47 -138 149 -148 149 -4 1 -23 14 -42 30 -19 17 -41 30 -50 30 -9 0 -21 5 -27 11 -24 24 -161 31 -228 11z"/>
 </g>

</svg>